HIERARCHY
ROOT RootJoint
{
    OFFSET   0.000000   0.000000   0.000000
    CHANNELS 6 Xposition Yposition Zposition Xrotation Yrotation Zrotation
    JOINT pelvis_lowerback
    {
        OFFSET   0.000000   0.093605   0.000000
        CHANNELS 3 Xrotation Yrotation Zrotation
        JOINT lowerback_torso
        {
            OFFSET   0.000000   0.100000   0.000000
            CHANNELS 3 Xrotation Yrotation Zrotation
            JOINT torso_head
            {
                OFFSET   0.000000   0.282350   0.000000
                CHANNELS 3 Xrotation Yrotation Zrotation
                End Site
                {
                    OFFSET   0.000000   0.192650   0.000000
                }
            }
            JOINT rTorso_Clavicle
            {
                OFFSET  -0.001000   0.157500   0.000000
                CHANNELS 3 Xrotation Yrotation Zrotation
                JOINT rShoulder
                {
                    OFFSET  -0.117647   0.000000   0.000000
                    CHANNELS 3 Xrotation Yrotation Zrotation
                    JOINT rElbow
                    {
                        OFFSET  -0.245000   0.000000   0.000000
                        CHANNELS 3 Xrotation Yrotation Zrotation
                        JOINT rWrist
                        {
                            OFFSET  -0.240000   0.000000   0.000000
                            CHANNELS 3 Xrotation Yrotation Zrotation
                            End Site
                            {
                                OFFSET  -0.116353  -0.002500   0.000000
                            }
                        }
                    }
                }
            }
            JOINT lTorso_Clavicle
            {
                OFFSET   0.001000   0.157500   0.000000
                CHANNELS 3 Xrotation Yrotation Zrotation
                JOINT lShoulder
                {
                    OFFSET   0.117647   0.000000   0.000000
                    CHANNELS 3 Xrotation Yrotation Zrotation
                    JOINT lElbow
                    {
                        OFFSET   0.245000   0.000000   0.000000
                        CHANNELS 3 Xrotation Yrotation Zrotation
                        JOINT lWrist
                        {
                            OFFSET   0.240000   0.000000   0.000000
                            CHANNELS 3 Xrotation Yrotation Zrotation
                            End Site
                            {
                                OFFSET   0.116353  -0.002500   0.000000
                            }
                        }
                    }
                }
            }
        }
    }
    JOINT rHip
    {
        OFFSET  -0.100000  -0.051395   0.000000
        CHANNELS 3 Xrotation Yrotation Zrotation
        JOINT rKnee
        {
            OFFSET   0.000000  -0.410000   0.000000
            CHANNELS 3 Xrotation Yrotation Zrotation
            JOINT rAnkle
            {
                OFFSET   0.000000  -0.390000   0.000000
                CHANNELS 3 Xrotation Yrotation Zrotation
                JOINT rToeJoint
                {
                    OFFSET   0.000000  -0.050000   0.130000
                    CHANNELS 3 Xrotation Yrotation Zrotation
                    End Site
                    {
                        OFFSET  -0.010000   0.002000   0.060000
                    }
                }
            }
        }
    }
    JOINT lHip
    {
        OFFSET   0.100000  -0.051395   0.000000
        CHANNELS 3 Xrotation Yrotation Zrotation
        JOINT lKnee
        {
            OFFSET   0.000000  -0.410000   0.000000
            CHANNELS 3 Xrotation Yrotation Zrotation
            JOINT lAnkle
            {
                OFFSET   0.000000  -0.390000   0.000000
                CHANNELS 3 Xrotation Yrotation Zrotation
                JOINT lToeJoint
                {
                    OFFSET   0.000000  -0.050000   0.130000
                    CHANNELS 3 Xrotation Yrotation Zrotation
                    End Site
                    {
                        OFFSET   0.010000   0.002000   0.060000
                    }
                }
            }
        }
    }
}
MOTION
Frames: 10
Frame Time:   0.008333
 -2.376719   0.925631   3.975860   0.000000   0.000000   0.000000   0.000000   0.000000   0.000000   0.000000   0.000000   0.000000   0.000000   0.000000   0.000000   0.000000   0.000000   0.000000   0.000000   0.000000   0.000000   0.000000   0.000000   0.000000   0.000000   0.000000   0.000000   0.000000   0.000000   0.000000   0.000000   0.000000   0.000000   0.000000   0.000000   0.000000   0.000000   0.000000   0.000000   0.000000   0.000000   0.000000   0.000000   0.000000   0.000000   0.000000   0.000000   0.000000   0.000000   0.000000   0.000000   0.000000   0.000000   0.000000   0.000000   0.000000   0.000000   0.000000   0.000000   0.000000   0.000000   0.000000   0.000000
 -2.376433   0.926147   3.975574  -0.614442   0.130253   0.084629   0.640225   0.066494  -0.072889   0.166645  -0.180473   0.008153  -0.051162   0.009973   0.039592   0.180994  -0.392072   0.352935   0.644393   0.342841   2.038845   0.050768   2.387729  -0.022212   0.242650  -1.373726  -2.793379  -0.020006   0.288454  -0.344095   0.717578  -0.122919  -1.939876   0.055553  -2.777323   0.022815   0.205164   1.337075   2.721543   0.240863  -0.256421  -0.430835   1.417842   0.004265  -0.001624  -1.401453  -0.500001   0.160416  -0.025359  -0.000041   0.000138   0.065353   0.069506   0.149654   1.798790  -0.003610   0.003212  -1.332036   0.293789   0.113922   0.146691  -0.000446   0.000631
 -2.376042   0.926995   3.975305  -1.340530   0.267595   0.168042   1.246885   0.136930  -0.126494   0.411694  -0.362926   0.025214  -0.062232   0.019698   0.080935   0.358713  -0.585590   1.406340   1.242676   0.892036   4.638623   0.118675   4.738672  -0.037925   0.514750  -1.945806  -4.893477  -0.032260   0.372638  -1.397510   1.369798  -0.453863  -4.319156   0.127820  -5.506339   0.038440   0.443783   1.751778   4.723262   0.572113  -0.525573  -1.130160   2.956580   0.011577  -0.003532  -2.705133  -0.982361   0.295004  -0.095315  -0.000327   0.000483   0.215940   0.159822   0.523785   3.727602  -0.010222   0.006964  -2.568657   0.575004   0.229452   0.252027  -0.000878   0.000979
 -2.375590   0.927745   3.975056  -2.057691   0.401835   0.239541   1.789036   0.204458  -0.156901   0.633587  -0.534427   0.060247  -0.079403   0.028931   0.118489   0.523563  -0.620887   2.919856   1.769923   1.553786   7.511905   0.185249   6.978443  -0.047128   0.789625  -2.134129  -6.118873  -0.046606   0.308406  -2.893443   1.952709  -0.903899  -6.918737   0.197178  -8.101422   0.047356   0.688091   1.760434   5.879898   0.910557  -0.794072  -2.032041   4.435147   0.019770  -0.005611  -3.917933  -1.439755   0.407990  -0.156817  -0.000648   0.000704   0.383850   0.256789   1.095114   5.571839  -0.017851   0.010583  -3.720513   0.838783   0.344966   0.351113  -0.001347   0.001232
 -2.375092   0.928077   3.974836  -2.740359   0.531247   0.299173   2.276687   0.269140  -0.164322   0.821713  -0.693610   0.116462  -0.108551   0.037545   0.151438   0.675179  -0.554898   4.717403   2.221072   2.269528  10.474178   0.241594   9.095318  -0.051732   1.061874  -2.120712  -6.656013  -0.064310   0.157102  -4.646833   2.471198  -1.422999  -9.605358   0.254711 -10.550068   0.051794   0.929905   1.574585   6.394739   1.233928  -1.058532  -3.091897   5.824666   0.027634  -0.007790  -5.048953  -1.872118   0.502312  -0.216965  -0.000994   0.000867   0.548302   0.355365   1.826196   7.301494  -0.025283   0.013957  -4.796242   1.085479   0.459593   0.436770  -0.001739   0.001374
 -2.374565   0.927755   3.974651  -3.384208   0.654792   0.349301   2.721131   0.330899  -0.150582   0.984102  -0.841278   0.191576  -0.146322   0.045632   0.181294   0.813889  -0.430208   6.662274   2.602560   3.005436  13.430520   0.284379  11.085965  -0.053372   1.325774  -2.002942  -6.721684  -0.085182  -0.039150  -6.528534   2.930634  -1.976836 -12.289162   0.297203 -12.850431   0.053422   1.162828   1.295477   6.471294   1.535817  -1.315968  -4.273394   7.124331   0.034526  -0.009961  -6.104429  -2.279853   0.580525  -0.276093  -0.001339   0.000983   0.703135   0.452108   2.682143   8.917662  -0.031860   0.017004  -5.801331   1.315738   0.572558   0.510174  -0.002027   0.001432
 -2.374024   0.926615   3.974505  -3.989617   0.771538   0.392027   3.131211   0.389607  -0.118158   1.129595  -0.978355   0.282992  -0.188860   0.053232   0.208972   0.940722  -0.273977   8.661413   2.921609   3.739437  16.320718   0.313326  12.952284  -0.053148   1.577486  -1.834695  -6.481325  -0.108470  -0.254370  -8.449662   3.336385  -2.542771 -14.911353   0.324655 -15.005946   0.053329   1.383215   0.975826   6.267072   1.813896  -1.563952  -5.545092   8.338346   0.040133  -0.012015  -7.089661  -2.663574   0.644889  -0.333193  -0.001652   0.001059   0.846194   0.544516   3.632697  10.426556  -0.037258   0.019645  -6.740424   1.530304   0.683228   0.573740  -0.002217   0.001433
 -2.373391   0.924129   3.973921  -4.207195   0.751743   0.353599   3.294824   0.447406   0.079245   1.137594  -0.943976   0.332605  -0.404668   0.043930   0.159054   1.046941  -0.103272  10.176138   3.366350   4.368919  18.893305   0.332608  14.998652  -0.056527   1.765313  -1.741167  -5.301072   0.057995  -0.459865  -9.713834   3.757195  -3.072361 -17.651581   0.353264 -17.602757   0.060518   1.535892   0.825185   5.295872   1.536833  -2.104518  -6.702878   9.527710   0.043012  -0.018549  -7.412399  -3.153793   0.945783  -0.345723  -0.001420   0.000969   0.767938   0.866851   4.596715  11.082916  -0.034421   0.018922  -7.301307   1.892290   0.691395   0.824824  -0.003715   0.002823
 -2.372743   0.920474   3.973142  -4.364498   0.740437   0.304920   3.477449   0.494405   0.296784   1.119235  -0.900920   0.390868  -0.624325   0.035700   0.113874   1.122451   0.095211  11.415536   3.747338   4.998560  21.171167   0.334534  16.925798  -0.058610   1.959709  -1.559837  -4.225069   0.197107  -0.688381 -10.744905   4.120842  -3.614695 -20.116887   0.360708 -20.054868   0.065421   1.705771   0.503125   4.352200   1.195460  -2.622054  -7.790543  10.605178   0.043457  -0.022878  -7.705624  -3.618239   1.223068  -0.310628  -0.000878   0.000439   0.627601   1.168684   5.504723  11.560362  -0.030608   0.017399  -7.830369   2.231828   0.703309   1.061986  -0.004649   0.003790
 -2.372110   0.915760   3.972300  -4.500376   0.741656   0.255865   3.672754   0.538397   0.513506   1.104813  -0.859650   0.454298  -0.826208   0.028077   0.075681   1.169690   0.307327  12.457517   4.070508   5.617283  23.212073   0.325446  18.734464  -0.059397   2.153779  -1.334165  -3.359010   0.305135  -0.930260 -11.602844   4.429305  -4.152955 -22.340669   0.354106 -22.354864   0.067956   1.876891   0.120976   3.583648   0.850320  -3.096748  -8.811333  11.593741   0.042365  -0.025305  -7.978937  -4.053254   1.479118  -0.278948  -0.000485   0.000065   0.454579   1.445263   6.349379  11.968449  -0.026886   0.015776  -8.326652   2.547978   0.717608   1.275982  -0.005102   0.004355
